/* XPM */
static char * clouse_pr_xpm[] = {
"28 28 30 1",
" 	c None",
".	c #AFAFAF",
"+	c #B1B1B1",
"@	c #B4B4B4",
"#	c #B7B7B7",
"$	c #BABABA",
"%	c #BDBDBD",
"&	c #C0C0C0",
"*	c #000000",
"=	c #C3C3C3",
"-	c #C6C6C6",
";	c #C9C9C9",
">	c #CCCCCC",
",	c #CFCFCF",
"'	c #D2D2D2",
")	c #D5D5D5",
"!	c #D8D8D8",
"~	c #DBDBDB",
"{	c #DEDEDE",
"]	c #E1E1E1",
"^	c #E4E4E4",
"/	c #E7E7E7",
"(	c #EAEAEA",
"_	c #EDEDED",
":	c #F0F0F0",
"<	c #F3F3F3",
"[	c #F6F6F6",
"}	c #F9F9F9",
"|	c #FCFCFC",
"1	c #FFFFFF",
"............................",
"++++++++++++++++++++++++++++",
"@@@@@@@@@@@@@@@@@@@@@@@@@@@@",
"############################",
"$$$$$$$$$$$$$$$$$$$$$$$$$$$$",
"%%%%%%%%%%%%%%%%%%%%%%%%%%%%",
"&&&&&&***&&&&&&&&&&***&&&&&&",
"======****========****======",
"------*****------*****------",
";;;;;;;*****;;;;*****;;;;;;;",
">>>>>>>>*****>>*****>>>>>>>>",
",,,,,,,,,**********,,,,,,,,,",
"''''''''''********''''''''''",
")))))))))))******)))))))))))",
"!!!!!!!!!!!******!!!!!!!!!!!",
"~~~~~~~~~~********~~~~~~~~~~",
"{{{{{{{{{**********{{{{{{{{{",
"]]]]]]]]*****]]*****]]]]]]]]",
"^^^^^^^*****^^^^*****^^^^^^^",
"//////*****//////*****//////",
"((((((****((((((((****((((((",
"______***__________***______",
"::::::::::::::::::::::::::::",
"<<<<<<<<<<<<<<<<<<<<<<<<<<<<",
"[[[[[[[[[[[[[[[[[[[[[[[[[[[[",
"}}}}}}}}}}}}}}}}}}}}}}}}}}}}",
"||||||||||||||||||||||||||||",
"1111111111111111111111111111"};
