/* XPM */
static char * icon_xpm[] = {
"28 28 76 1",
" 	c None",
".	c #C4C4C4",
"+	c #CFCFCF",
"@	c #CECECE",
"#	c #E0E0E0",
"$	c #DFDFDF",
"%	c #DCDCDC",
"&	c #C9C9C9",
"*	c #D4D4D4",
"=	c #D3D3D3",
"-	c #CDCDCD",
";	c #D1D1D1",
">	c #C7C7C7",
",	c #C6C6C6",
"'	c #B8B8B8",
")	c #B3B3B3",
"!	c #D0D0D0",
"~	c #C5C5C5",
"{	c #BDBDBD",
"]	c #B9B9B9",
"^	c #ADADAD",
"/	c #AEAEAE",
"(	c #D7D7D7",
"_	c #C8C8C8",
":	c #BEBEBE",
"<	c #BCBCBC",
"[	c #B1B1B1",
"}	c #DBDBDB",
"|	c #CBCBCB",
"1	c #C1C1C1",
"2	c #BFBFBF",
"3	c #BBBBBB",
"4	c #B0B0B0",
"5	c #DADADA",
"6	c #DEDEDE",
"7	c #D8D8D8",
"8	c #C2C2C2",
"9	c #B6B6B6",
"0	c #DDDDDD",
"a	c #E2E2E2",
"b	c #E1E1E1",
"c	c #E5E5E5",
"d	c #CACACA",
"e	c #E4E4E4",
"f	c #E9E9E9",
"g	c #E7E7E7",
"h	c #ECECEC",
"i	c #EBEBEB",
"j	c #EFEFEF",
"k	c #E8E8E8",
"l	c #CCCCCC",
"m	c #EEEEEE",
"n	c #F3F3F3",
"o	c #D6D6D6",
"p	c #F1F1F1",
"q	c #F6F6F6",
"r	c #D2D2D2",
"s	c #F5F5F5",
"t	c #FAFAFA",
"u	c #F2F2F2",
"v	c #D5D5D5",
"w	c #F8F8F8",
"x	c #FDFDFD",
"y	c #000000",
"z	c #FCFCFC",
"A	c #FFFFFF",
"B	c #F9F9F9",
"C	c #E3E3E3",
"D	c #E6E6E6",
"E	c #F4F4F4",
"F	c #F7F7F7",
"G	c #FBFBFB",
"H	c #FEFEFE",
"I	c #EAEAEA",
"J	c #EDEDED",
"K	c #F0F0F0",
".+++++++++++++++++++++++++++",
"@#$%%%%%%%%%%%%%%%%%%%%%%%%%",
"&*========================-&",
"-;@>,,,,,,,,,,,,,,,,,,,,,.')",
"!*@~{{{{{{{{{{{{{{{{{{{{{]^/",
"=(;_:<<<<<<<<<<<<<<<<<<<<'^[",
"(}*|12222222222222222222234)",
"567@.88888888888888888888:)9",
"0a};>~~~~~~~~~~~~~~~~~~~~19]",
"bc6*d____________________.]<",
"efa7-||||||||||||||||||||>32",
"ghc}!@@@@@@@@@@@@@@@@@@@@d:8",
"ijk6=;;;;;;;;;;;;;;;;;;;;l1.",
"mnhbo********************+.>",
"pqje5((((((((((((((((((((r,d",
"stug055555555555555555555v&-",
"wxqi#0yyyyyyyyyyyyyyyyy007l!",
"zABmC#yyyyyyyyyyyyyyyyy##}+r",
"AAzpDCyyyyyyyyyyyyyyyyyCC6;v",
"AAAEfDyyyyyyyyyyyyyyyyyDDb*7",
"AAAFhfyyyyyyyyyyyyyyyyyffe(}",
"AAAGjhyyyyyyyyyyyyyyyyyhhg56",
"AAAHujjjjjjjjjjjjjjjjjjjjI%#",
"AAAAsuuuuuuuuuuuuuuuuuuuuJ$C",
"AAAAwssssssssssssssssssssKaD",
"AAAAFpppppppppppppppppppppCf",
"AAAEC$$$$$$$$$$$$$$$$$$$$bbI",
"AAAEffffffffffffffffffffffhp"};
