/* XPM */
static char * icon_un_xpm[] = {
"28 28 112 2",
"  	c None",
". 	c #A1A0A0",
"+ 	c #AAA9A9",
"@ 	c #ABA8A8",
"# 	c #BAB8B8",
"$ 	c #B9B7B7",
"% 	c #B7B4B4",
"& 	c #A6A4A4",
"* 	c #B0ADAD",
"= 	c #AFACAC",
"- 	c #AAA7A7",
"; 	c #AAA8A8",
"> 	c #ADABAB",
", 	c #A6A3A3",
"' 	c #A5A3A3",
") 	c #A3A1A1",
"! 	c #999797",
"~ 	c #959393",
"{ 	c #ACAAAA",
"] 	c #AFADAD",
"^ 	c #9D9B9B",
"/ 	c #8F8D8D",
"( 	c #908E8E",
"_ 	c #B3B1B1",
": 	c #AEABAB",
"< 	c #9E9C9C",
"[ 	c #9C9A9A",
"} 	c #939191",
"| 	c #B2AFAF",
"1 	c #B5B3B3",
"2 	c #B0AEAE",
"3 	c #A8A6A6",
"4 	c #A09E9E",
"5 	c #9B9999",
"6 	c #929090",
"7 	c #B9B6B6",
"8 	c #ABA9A9",
"9 	c #A19F9F",
"0 	c #979595",
"a 	c #B7B5B5",
"b 	c #BBB9B9",
"c 	c #969595",
"d 	c #BBB8B8",
"e 	c #BEBCBC",
"f 	c #BDBBBB",
"g 	c #C1BEBE",
"h 	c #B3B0B0",
"i 	c #A4A3A3",
"j 	c #BFBDBD",
"k 	c #C3C1C1",
"l 	c #C2C0C0",
"m 	c #C6C4C4",
"n 	c #C0BEBE",
"o 	c #B8B6B6",
"p 	c #A9A7A7",
"q 	c #C5C2C2",
"r 	c #C9C6C6",
"s 	c #C3C0C0",
"t 	c #B1AFAF",
"u 	c #A2A0A0",
"v 	c #C8C6C6",
"w 	c #CCCACA",
"x 	c #B4B2B2",
"y 	c #B2B0B0",
"z 	c #AEACAC",
"A 	c #A4A2A2",
"B 	c #A7A5A5",
"C 	c #CAC8C8",
"D 	c #CECCCC",
"E 	c #B6B4B4",
"F 	c #CECBCB",
"G 	c #D2CFCF",
"H 	c #CCC9C9",
"I 	c #000000",
"J 	c #D0CECE",
"K 	c #D4D2D2",
"L 	c #D2D0D0",
"M 	c #D6D4D4",
"N 	c #C7C5C5",
"O 	c #D5D3D3",
"P 	c #DAD7D7",
"Q 	c #D3D1D1",
"R 	c #D8D5D5",
"S 	c #DCDADA",
"T 	c #D6D3D3",
"U 	c #BCBABA",
"V 	c #B4B3B3",
"W 	c #DBD9D9",
"X 	c #DFDDDD",
"Y 	c #D9D7D7",
"Z 	c #CFCDCD",
"` 	c #C5C3C3",
" .	c #DDDBDB",
"..	c #E2DFDF",
"+.	c #D1CFCF",
"@.	c #C1BFBF",
"#.	c #E1DEDE",
"$.	c #E5E3E3",
"%.	c #DEDCDC",
"&.	c #C4C2C2",
"*.	c #E3E1E1",
"=.	c #E7E5E5",
"-.	c #D7D4D4",
";.	c #BAB9B9",
">.	c #E6E4E4",
",.	c #EBE9E9",
"'.	c #E4E2E2",
").	c #D7D5D5",
"!.	c #E9E6E6",
"~.	c #EDEBEB",
"{.	c #C9C7C7",
"].	c #EFEDED",
". + + + + + + + + + + + + + + + + + + + + + + + + + + + ",
"@ # $ % % % % % % % % % % % % % % % % % % % % % % % % % ",
"& * = = = = = = = = = = = = = = = = = = = = = = = = - & ",
"; > @ , ' ' ' ' ' ' ' ' ' ' ' ' ' ' ' ' ' ' ' ' ' ) ! ~ ",
"{ ] ; ) ^ ^ ^ ^ ^ ^ ^ ^ ^ ^ ^ ^ ^ ^ ^ ^ ^ ^ ^ ^ ^ ! / ( ",
"] _ : & < [ [ [ [ [ [ [ [ [ [ [ [ [ [ [ [ [ [ [ [ ! ( } ",
"| 1 2 3 4 < < < < < < < < < < < < < < < < < < < < 5 6 ~ ",
"1 7 _ 8 ) 9 9 9 9 9 9 9 9 9 9 9 9 9 9 9 9 9 9 9 9 < ~ 0 ",
"a b 1 > ' ) ) ) ) ) ) ) ) ) ) ) ) ) ) ) ) ) ) ) ) 4 c ! ",
"d e $ 2 3 & & & & & & & & & & & & & & & & & & & & ) ! [ ",
"f g b h ; 3 3 3 3 3 3 3 3 3 3 3 3 3 3 3 3 3 3 3 3 i 5 < ",
"j k f 1 { ; ; ; ; ; ; ; ; ; ; ; ; ; ; ; ; ; ; ; ; & ^ 4 ",
"l m n o ] > > > > > > > > > > > > > > > > > > > > p 4 ) ",
"q r s # t ] ] ] ] ] ] ] ] ] ] ] ] ] ] ] ] ] ] ] ] 8 u i ",
"v w m f x y y y y y y y y y y y y y y y y y y y y z A B ",
"C D v j E x x x x x x x x x x x x x x x x x x x x 2 & p ",
"F G H l $ a I I I I I I I I I I I I I I I I I a a _ p { ",
"J K D q b $ I I I I I I I I I I I I I I I I I $ $ 1 8 z ",
"L M J N f b I I I I I I I I I I I I I I I I I b b a > 2 ",
"O P Q C n e I I I I I I I I I I I I I I I I I e e # ] _ ",
"R S T w l n I I I I I I I I I I I I I I I I I n n U t V ",
"W X Y Z ` k I I I I I I I I I I I I I I I I I k k j x a ",
" ...W +.N ` ` ` ` ` ` ` ` ` ` ` ` ` ` ` ` ` ` ` ` @.E $ ",
"#.$.%.K C v v v v v v v v v v v v v v v v v v v v &.$ U ",
"*.=.#.-.w C C C C C C C C C C C C C C C C C C C C m ;.e ",
">.,.'.).w N N N N N N N N N N N N N N N N N N N N N U @.",
"!.~.X {.U o o o o o o o o o o o o o o o o o o o o $ $ @.",
",.].X {.n n n n n n n n n n n n n n n n n n n n n n l N "};
