/* XPM */
static char * max_xpm[] = {
"28 28 76 1",
" 	c None",
".	c #C4C4C4",
"+	c #CFCFCF",
"@	c #CECECE",
"#	c #E0E0E0",
"$	c #DFDFDF",
"%	c #DCDCDC",
"&	c #C9C9C9",
"*	c #D4D4D4",
"=	c #D3D3D3",
"-	c #CDCDCD",
";	c #D1D1D1",
">	c #C7C7C7",
",	c #C6C6C6",
"'	c #B8B8B8",
")	c #B3B3B3",
"!	c #D0D0D0",
"~	c #C5C5C5",
"{	c #BDBDBD",
"]	c #B9B9B9",
"^	c #ADADAD",
"/	c #AEAEAE",
"(	c #D7D7D7",
"_	c #C8C8C8",
":	c #BEBEBE",
"<	c #BCBCBC",
"[	c #B1B1B1",
"}	c #DBDBDB",
"|	c #CBCBCB",
"1	c #C1C1C1",
"2	c #BFBFBF",
"3	c #000000",
"4	c #BBBBBB",
"5	c #B0B0B0",
"6	c #DADADA",
"7	c #DEDEDE",
"8	c #D8D8D8",
"9	c #C2C2C2",
"0	c #B6B6B6",
"a	c #DDDDDD",
"b	c #E2E2E2",
"c	c #E1E1E1",
"d	c #E5E5E5",
"e	c #CACACA",
"f	c #E4E4E4",
"g	c #E9E9E9",
"h	c #E7E7E7",
"i	c #ECECEC",
"j	c #EBEBEB",
"k	c #EFEFEF",
"l	c #E8E8E8",
"m	c #CCCCCC",
"n	c #EEEEEE",
"o	c #F3F3F3",
"p	c #D6D6D6",
"q	c #F1F1F1",
"r	c #F6F6F6",
"s	c #D2D2D2",
"t	c #F5F5F5",
"u	c #FAFAFA",
"v	c #F2F2F2",
"w	c #D5D5D5",
"x	c #F8F8F8",
"y	c #FDFDFD",
"z	c #FCFCFC",
"A	c #FFFFFF",
"B	c #F9F9F9",
"C	c #E3E3E3",
"D	c #E6E6E6",
"E	c #F4F4F4",
"F	c #F7F7F7",
"G	c #FBFBFB",
"H	c #FEFEFE",
"I	c #EAEAEA",
"J	c #EDEDED",
"K	c #F0F0F0",
".+++++++++++++++++++++++++++",
"@#$%%%%%%%%%%%%%%%%%%%%%%%%%",
"&*========================-&",
"-;@>,,,,,,,,,,,,,,,,,,,,,.')",
"!*@~{{{{{{{{{{{{{{{{{{{{{]^/",
"=(;_:<<<<<<<<<<<<<<<<<<<<'^[",
"(}*|12333333333333333332245)",
"678@.93333333333333333399:)0",
"ab};>~33333333333333333~~10]",
"cd7*e_33333333333333333__.]<",
"fgb8-|33333333333333333||>42",
"hid}!@33333333333333333@@e:9",
"jkl7=;333;;;;;;;;;;;333;;m1.",
"noicp*333***********333**+.>",
"qrkf6(333(((((((((((333((s,e",
"tuvha63336666666666633366w&-",
"xyrj#a333aaaaaaaaaaa333aa8m!",
"zABnC#333###########333##}+s",
"AAzqDC333CCCCCCCCCCC333CC7;w",
"AAAEgD33333333333333333DDc*8",
"AAAFig33333333333333333ggf(}",
"AAAGki33333333333333333iih67",
"AAAHvkkkkkkkkkkkkkkkkkkkkI%#",
"AAAAtvvvvvvvvvvvvvvvvvvvvJ$C",
"AAAAxttttttttttttttttttttKbD",
"AAAAFqqqqqqqqqqqqqqqqqqqqqCg",
"AAAEC$$$$$$$$$$$$$$$$$$$$ccI",
"AAAEggggggggggggggggggggggiq"};
