/* XPM */
static char * max_un_xpm[] = {
"28 28 112 2",
"  	c None",
". 	c #A1A0A0",
"+ 	c #AAA9A9",
"@ 	c #ABA8A8",
"# 	c #BAB8B8",
"$ 	c #B9B7B7",
"% 	c #B7B4B4",
"& 	c #A6A4A4",
"* 	c #B0ADAD",
"= 	c #AFACAC",
"- 	c #AAA7A7",
"; 	c #AAA8A8",
"> 	c #ADABAB",
", 	c #A6A3A3",
"' 	c #A5A3A3",
") 	c #A3A1A1",
"! 	c #999797",
"~ 	c #959393",
"{ 	c #ACAAAA",
"] 	c #AFADAD",
"^ 	c #9D9B9B",
"/ 	c #8F8D8D",
"( 	c #908E8E",
"_ 	c #B3B1B1",
": 	c #AEABAB",
"< 	c #9E9C9C",
"[ 	c #9C9A9A",
"} 	c #939191",
"| 	c #B2AFAF",
"1 	c #B5B3B3",
"2 	c #B0AEAE",
"3 	c #A8A6A6",
"4 	c #A09E9E",
"5 	c #000000",
"6 	c #9B9999",
"7 	c #929090",
"8 	c #B9B6B6",
"9 	c #ABA9A9",
"0 	c #A19F9F",
"a 	c #979595",
"b 	c #B7B5B5",
"c 	c #BBB9B9",
"d 	c #969595",
"e 	c #BBB8B8",
"f 	c #BEBCBC",
"g 	c #BDBBBB",
"h 	c #C1BEBE",
"i 	c #B3B0B0",
"j 	c #A4A3A3",
"k 	c #BFBDBD",
"l 	c #C3C1C1",
"m 	c #C2C0C0",
"n 	c #C6C4C4",
"o 	c #C0BEBE",
"p 	c #B8B6B6",
"q 	c #A9A7A7",
"r 	c #C5C2C2",
"s 	c #C9C6C6",
"t 	c #C3C0C0",
"u 	c #B1AFAF",
"v 	c #A2A0A0",
"w 	c #C8C6C6",
"x 	c #CCCACA",
"y 	c #B4B2B2",
"z 	c #B2B0B0",
"A 	c #AEACAC",
"B 	c #A4A2A2",
"C 	c #A7A5A5",
"D 	c #CAC8C8",
"E 	c #CECCCC",
"F 	c #B6B4B4",
"G 	c #CECBCB",
"H 	c #D2CFCF",
"I 	c #CCC9C9",
"J 	c #D0CECE",
"K 	c #D4D2D2",
"L 	c #D2D0D0",
"M 	c #D6D4D4",
"N 	c #C7C5C5",
"O 	c #D5D3D3",
"P 	c #DAD7D7",
"Q 	c #D3D1D1",
"R 	c #D8D5D5",
"S 	c #DCDADA",
"T 	c #D6D3D3",
"U 	c #BCBABA",
"V 	c #B4B3B3",
"W 	c #DBD9D9",
"X 	c #DFDDDD",
"Y 	c #D9D7D7",
"Z 	c #CFCDCD",
"` 	c #C5C3C3",
" .	c #DDDBDB",
"..	c #E2DFDF",
"+.	c #D1CFCF",
"@.	c #C1BFBF",
"#.	c #E1DEDE",
"$.	c #E5E3E3",
"%.	c #DEDCDC",
"&.	c #C4C2C2",
"*.	c #E3E1E1",
"=.	c #E7E5E5",
"-.	c #D7D4D4",
";.	c #BAB9B9",
">.	c #E6E4E4",
",.	c #EBE9E9",
"'.	c #E4E2E2",
").	c #D7D5D5",
"!.	c #E9E6E6",
"~.	c #EDEBEB",
"{.	c #C9C7C7",
"].	c #EFEDED",
". + + + + + + + + + + + + + + + + + + + + + + + + + + + ",
"@ # $ % % % % % % % % % % % % % % % % % % % % % % % % % ",
"& * = = = = = = = = = = = = = = = = = = = = = = = = - & ",
"; > @ , ' ' ' ' ' ' ' ' ' ' ' ' ' ' ' ' ' ' ' ' ' ) ! ~ ",
"{ ] ; ) ^ ^ ^ ^ ^ ^ ^ ^ ^ ^ ^ ^ ^ ^ ^ ^ ^ ^ ^ ^ ^ ! / ( ",
"] _ : & < [ [ [ [ [ [ [ [ [ [ [ [ [ [ [ [ [ [ [ [ ! ( } ",
"| 1 2 3 4 < 5 5 5 5 5 5 5 5 5 5 5 5 5 5 5 5 5 < < 6 7 ~ ",
"1 8 _ 9 ) 0 5 5 5 5 5 5 5 5 5 5 5 5 5 5 5 5 5 0 0 < ~ a ",
"b c 1 > ' ) 5 5 5 5 5 5 5 5 5 5 5 5 5 5 5 5 5 ) ) 4 d ! ",
"e f $ 2 3 & 5 5 5 5 5 5 5 5 5 5 5 5 5 5 5 5 5 & & ) ! [ ",
"g h c i ; 3 5 5 5 5 5 5 5 5 5 5 5 5 5 5 5 5 5 3 3 j 6 < ",
"k l g 1 { ; 5 5 5 5 5 5 5 5 5 5 5 5 5 5 5 5 5 ; ; & ^ 4 ",
"m n o p ] > 5 5 5 > > > > > > > > > > > 5 5 5 > > q 4 ) ",
"r s t # u ] 5 5 5 ] ] ] ] ] ] ] ] ] ] ] 5 5 5 ] ] 9 v j ",
"w x n g y z 5 5 5 z z z z z z z z z z z 5 5 5 z z A B C ",
"D E w k F y 5 5 5 y y y y y y y y y y y 5 5 5 y y 2 & q ",
"G H I m $ b 5 5 5 b b b b b b b b b b b 5 5 5 b b _ q { ",
"J K E r c $ 5 5 5 $ $ $ $ $ $ $ $ $ $ $ 5 5 5 $ $ 1 9 A ",
"L M J N g c 5 5 5 c c c c c c c c c c c 5 5 5 c c b > 2 ",
"O P Q D o f 5 5 5 5 5 5 5 5 5 5 5 5 5 5 5 5 5 f f # ] _ ",
"R S T x m o 5 5 5 5 5 5 5 5 5 5 5 5 5 5 5 5 5 o o U u V ",
"W X Y Z ` l 5 5 5 5 5 5 5 5 5 5 5 5 5 5 5 5 5 l l k y b ",
" ...W +.N ` ` ` ` ` ` ` ` ` ` ` ` ` ` ` ` ` ` ` ` @.F $ ",
"#.$.%.K D w w w w w w w w w w w w w w w w w w w w &.$ U ",
"*.=.#.-.x D D D D D D D D D D D D D D D D D D D D n ;.f ",
">.,.'.).x N N N N N N N N N N N N N N N N N N N N N U @.",
"!.~.X {.U p p p p p p p p p p p p p p p p p p p p $ $ @.",
",.].X {.o o o o o o o o o o o o o o o o o o o o o o m N "};
