/* XPM */
static char * stic_xpm[] = {
"28 28 76 1",
" 	c None",
".	c #C4C4C4",
"+	c #CFCFCF",
"@	c #CECECE",
"#	c #E0E0E0",
"$	c #DFDFDF",
"%	c #DCDCDC",
"&	c #C9C9C9",
"*	c #D4D4D4",
"=	c #D3D3D3",
"-	c #CDCDCD",
";	c #D1D1D1",
">	c #C7C7C7",
",	c #C6C6C6",
"'	c #B8B8B8",
")	c #B3B3B3",
"!	c #D0D0D0",
"~	c #C5C5C5",
"{	c #BDBDBD",
"]	c #B9B9B9",
"^	c #ADADAD",
"/	c #AEAEAE",
"(	c #D7D7D7",
"_	c #C8C8C8",
":	c #BEBEBE",
"<	c #BCBCBC",
"[	c #B1B1B1",
"}	c #DBDBDB",
"|	c #CBCBCB",
"1	c #C1C1C1",
"2	c #BFBFBF",
"3	c #BBBBBB",
"4	c #B0B0B0",
"5	c #DADADA",
"6	c #DEDEDE",
"7	c #D8D8D8",
"8	c #C2C2C2",
"9	c #B6B6B6",
"0	c #DDDDDD",
"a	c #E2E2E2",
"b	c #E1E1E1",
"c	c #E5E5E5",
"d	c #CACACA",
"e	c #E4E4E4",
"f	c #E9E9E9",
"g	c #E7E7E7",
"h	c #ECECEC",
"i	c #000000",
"j	c #EBEBEB",
"k	c #EFEFEF",
"l	c #E8E8E8",
"m	c #CCCCCC",
"n	c #EEEEEE",
"o	c #F3F3F3",
"p	c #D6D6D6",
"q	c #F1F1F1",
"r	c #F6F6F6",
"s	c #D2D2D2",
"t	c #F5F5F5",
"u	c #FAFAFA",
"v	c #F2F2F2",
"w	c #D5D5D5",
"x	c #F8F8F8",
"y	c #FDFDFD",
"z	c #FCFCFC",
"A	c #FFFFFF",
"B	c #F9F9F9",
"C	c #E3E3E3",
"D	c #E6E6E6",
"E	c #F4F4F4",
"F	c #F7F7F7",
"G	c #FBFBFB",
"H	c #FEFEFE",
"I	c #EAEAEA",
"J	c #EDEDED",
"K	c #F0F0F0",
".+++++++++++++++++++++++++++",
"@#$%%%%%%%%%%%%%%%%%%%%%%%%%",
"&*========================-&",
"-;@>,,,,,,,,,,,,,,,,,,,,,.')",
"!*@~{{{{{{{{{{{{{{{{{{{{{]^/",
"=(;_:<<<<<<<<<<<<<<<<<<<<'^[",
"(}*|12222222222222222222234)",
"567@.88888888888888888888:)9",
"0a};>~~~~~~~~~~~~~~~~~~~~19]",
"bc6*d____________________.]<",
"efa7-||||||||||||||||||||>32",
"ghc}!@@@@@@iiiiii@@@@@@@@d:8",
"jkl6=;;;;;;iiiiii;;;;;;;;m1.",
"nohbp******iiiiii********+.>",
"qrke5((((((iiiiii((((((((s,d",
"tuvg0555555iiiiii55555555w&-",
"xyrj#000000iiiiii000000007m!",
"zABnC####################}+s",
"AAzqDCCCCCCCCCCCCCCCCCCCC6;w",
"AAAEfDDDDDDDDDDDDDDDDDDDDb*7",
"AAAFhffffffffffffffffffffe(}",
"AAAGkhhhhhhhhhhhhhhhhhhhhg56",
"AAAHvkkkkkkkkkkkkkkkkkkkkI%#",
"AAAAtvvvvvvvvvvvvvvvvvvvvJ$C",
"AAAAxttttttttttttttttttttKaD",
"AAAAFqqqqqqqqqqqqqqqqqqqqqCf",
"AAAEC$$$$$$$$$$$$$$$$$$$$bbI",
"AAAEffffffffffffffffffffffhq"};
