/* XPM */
static char * stick_pr_xpm[] = {
"28 28 29 1",
" 	c None",
".	c #AFAFAF",
"+	c #B2B2B2",
"@	c #B5B5B5",
"#	c #B8B8B8",
"$	c #BBBBBB",
"%	c #BEBEBE",
"&	c #C1C1C1",
"*	c #C4C4C4",
"=	c #C7C7C7",
"-	c #CACACA",
";	c #CDCDCD",
">	c #D0D0D0",
",	c #000000",
"'	c #D3D3D3",
")	c #D7D7D7",
"!	c #DADADA",
"~	c #DDDDDD",
"{	c #E0E0E0",
"]	c #E3E3E3",
"^	c #E6E6E6",
"/	c #E9E9E9",
"(	c #ECECEC",
"_	c #EFEFEF",
":	c #F2F2F2",
"<	c #F5F5F5",
"[	c #F8F8F8",
"}	c #FBFBFB",
"|	c #FFFFFF",
"............................",
"++++++++++++++++++++++++++++",
"@@@@@@@@@@@@@@@@@@@@@@@@@@@@",
"############################",
"$$$$$$$$$$$$$$$$$$$$$$$$$$$$",
"%%%%%%%%%%%%%%%%%%%%%%%%%%%%",
"&&&&&&&&&&&&&&&&&&&&&&&&&&&&",
"****************************",
"============================",
"----------------------------",
";;;;;;;;;;;;;;;;;;;;;;;;;;;;",
">>>>>>>>>>>,,,,,,>>>>>>>>>>>",
"''''''''''',,,,,,'''''''''''",
"))))))))))),,,,,,)))))))))))",
"!!!!!!!!!!!,,,,,,!!!!!!!!!!!",
"~~~~~~~~~~~,,,,,,~~~~~~~~~~~",
"{{{{{{{{{{{,,,,,,{{{{{{{{{{{",
"]]]]]]]]]]]]]]]]]]]]]]]]]]]]",
"^^^^^^^^^^^^^^^^^^^^^^^^^^^^",
"////////////////////////////",
"((((((((((((((((((((((((((((",
"____________________________",
"::::::::::::::::::::::::::::",
"<<<<<<<<<<<<<<<<<<<<<<<<<<<<",
"[[[[[[[[[[[[[[[[[[[[[[[[[[[[",
"}}}}}}}}}}}}}}}}}}}}}}}}}}}}",
"||||||||||||||||||||||||||||",
"||||||||||||||||||||||||||||"};
